<?xml version="1.0" standalone="no"?><!DOCTYPE svg PUBLIC "-//W3C//DTD SVG 1.1//EN" "http://www.w3.org/Graphics/SVG/1.1/DTD/svg11.dtd"><svg t="1725263490003" class="icon" viewBox="0 0 1024 1024" version="1.1" xmlns="http://www.w3.org/2000/svg" p-id="4335" xmlns:xlink="http://www.w3.org/1999/xlink" width="200" height="200"><path d="M60.884367 727.052806a30.917843 30.917843 0 0 0 2.200577 41.596652l55.129415 54.747842c-7.485097 24.216799-14.8552 64.208754 0 104.430698 14.36386 38.507481 44.9524 67.784038 90.897935 87.040392 15.132232 6.324698 30.813302 9.13161 46.933442 9.13161 48.088614 0 100.358847-24.37361 154.829658-49.792624 111.142196-51.773666 237.14482-110.593359 375.028468-3.083944a31.46668 31.46668 0 0 0 44.011536-5.28452 30.970113 30.970113 0 0 0-5.044078-43.514969l-0.292713-0.224762c-168.252653-131.057155-325.455379-57.779516-440.2774-4.286159-62.394977 29.051796-116.259452 54.13628-150.867573 39.610382-29.433368-12.273051-48.417917-29.496092-56.399582-51.167331a83.517378 83.517378 0 0 1-4.840223-29.104066l24.540874 24.37361a31.41441 31.41441 0 0 0 41.816186 2.200577l430.152656-344.8215c6.606957 0.444297 13.041423 0.940864 19.700651 0.940864 155.388949 0 281.715648-125.506057 281.715648-279.891417C970.05712 125.615824 843.73042 0 688.346699 0 533.182512 0 406.86104 125.506057 406.86104 279.948914c0 6.60173 0.548837 13.093693 1.045404 19.533386l-347.022077 427.570506m846.615738-447.103892c0 119.944504-98.210541 217.668931-218.986142 217.668931S469.533049 399.945688 469.533049 279.948914c0-120.002001 98.210541-217.611434 218.986141-217.611434 120.655379-0.109767 218.980914 97.609433 218.980915 217.611434M221.21808 837.640938l-39.66788-39.448345a31.665307 31.665307 0 0 0-9.737944-9.690901l-44.455833-44.121304 297.553528-366.550236a282.348118 282.348118 0 0 0 165.226207 164.180802l-368.918078 295.629984M410.049524 516.429902l-67.951303 67.512233a31.02761 31.02761 0 0 0 22.173033 53.10133 31.492815 31.492815 0 0 0 22.173033-9.074113l67.899032-67.51746a31.02761 31.02761 0 0 0 0-44.016763 31.46668 31.46668 0 0 0-44.293795-0.005227" fill="" p-id="4336"></path></svg>