<?xml version="1.0" standalone="no"?><!DOCTYPE svg PUBLIC "-//W3C//DTD SVG 1.1//EN" "http://www.w3.org/Graphics/SVG/1.1/DTD/svg11.dtd"><svg t="1721378253856" class="icon" viewBox="0 0 1024 1024" version="1.1" xmlns="http://www.w3.org/2000/svg" p-id="8730" xmlns:xlink="http://www.w3.org/1999/xlink" width="200" height="200"><path d="M201.7 731c14.2 0 25.7-11.5 25.7-25.7s-11.5-25.7-25.7-25.7-25.7 11.5-25.7 25.7c-0.1 14.2 11.5 25.7 25.7 25.7zM179.2 766.3v-2.1 2.1zM466.9 807.1s0 0.1 0 0H254.3c-33.5 0-33.8-8-33.8-40v-0.1-0.8h-0.2c-0.5-11-9.4-19.9-20.5-19.9s-20.1 8.8-20.5 19.9h-0.1c0.4 56.1 18.3 82.3 75.2 82.3H467c11.4 0 20.7-9.3 20.7-20.7s-9.3-20.7-20.8-20.7zM831.2 456.7h-324c-14.7 0-26.7 12-26.7 26.7s12 26.7 26.7 26.7h324c14.7 0 26.7-12 26.7-26.7s-12-26.7-26.7-26.7zM734 588.6H507.2c-14.7 0-26.7 12-26.7 26.7s12 26.7 26.7 26.7H734c14.7 0 26.7-12 26.7-26.7 0-14.6-12-26.7-26.7-26.7zM307.4 644.5c52.5 0 95.1-42.6 95.1-95.1 0-52.5-42.6-95.1-95.1-95.1-52.5 0-95.1 42.6-95.1 95.1 0 52.5 42.6 95.1 95.1 95.1z m0-146.9c28.6 0 51.8 23.2 51.8 51.8 0 28.6-23.2 51.8-51.8 51.8s-51.8-23.2-51.8-51.8c0-28.6 23.2-51.8 51.8-51.8z" fill="#6B400D" p-id="8731"></path><path d="M307.4 601.2c28.6 0 51.8-23.2 51.8-51.8 0-28.6-23.2-51.8-51.8-51.8s-51.8 23.2-51.8 51.8c0 28.6 23.2 51.8 51.8 51.8z" fill="#FFD524" p-id="8732"></path><path d="M959.9 378.5c0-73.1-59.4-132.5-132.5-132.5H343l273.8-115.4c15.3-5.7 23.2-22.8 17.5-38.1-4.3-11.6-15.5-19.4-27.9-19.4-3.5 0-6.9 0.6-10.3 1.9L173.6 247.2c-1.2 0.4-2.3 1-2.9 1.5C109.4 261.3 65 315.9 65 378.5v438.3c0 73.1 59.4 132.5 132.5 132.5h630c73.1 0 132.5-59.4 132.5-132.5l-0.1-438.3z m-56.1 438.3c0 42.1-34.3 76.4-76.4 76.4h-630c-42.1 0-76.3-34.3-76.3-76.4V378.5c0-42.1 34.2-76.3 76.3-76.3h630c42.1 0 76.4 34.2 76.4 76.3v438.3z" fill="#6B400D" p-id="8733"></path></svg>