<?xml version="1.0" standalone="no"?><!DOCTYPE svg PUBLIC "-//W3C//DTD SVG 1.1//EN" "http://www.w3.org/Graphics/SVG/1.1/DTD/svg11.dtd"><svg t="1739859637342" class="icon" viewBox="0 0 1024 1024" version="1.1" xmlns="http://www.w3.org/2000/svg" p-id="4331" xmlns:xlink="http://www.w3.org/1999/xlink" width="200" height="200"><path d="M855.424 900.928c-2.688-8.128-52.736-21.44-52.736-21.44-44.736-18.752-44.736-80.384 0-99.328 0 0 47.424-13.312 52.736-21.44 7.936-16.064 21.056-51.008 21.056-51.008 7.936-21.44 26.304-32.256 42.048-32.256v-225.28c0-34.752-5.312-69.696-10.624-101.952C868.48 147.2 676.224-21.824 439.36 2.304 365.632 10.432 299.84 34.56 241.984 72c31.68 13.312 92.16 37.504 92.16 37.504 44.8 18.688 44.8 80.32 0 99.264 0 0-89.472 29.504-92.16 37.44-13.056 32.32-36.8 93.952-36.8 93.952-18.432 45.568-78.912 45.568-97.472 0l-28.864-72.064c-23.68 56.384-34.112 118.016-34.112 182.336v410.304c0 99.264 60.48 160.896 160.64 160.896H429.12c-15.744-5.376-31.68-10.816-47.424-18.688-142.208-67.072-210.688-244.16-189.632-399.68 2.688-18.752 10.624-24.128 28.992-26.88 128.96-13.312 389.696-67.008 418.56-193.152 2.624-16 5.312-29.504 7.936-45.568 5.312 5.376 8 10.752 8 16C802.88 541.44 776.704 616.32 776.704 605.696c5.312 51.008 5.312 102.016-7.936 152.832-31.68 128.704-97.408 225.28-231.744 265.408H763.52c52.736 0 97.472-21.44 123.648-56.384-5.248-5.44-7.936-10.816-10.56-16.064 0 0.448-15.872-34.368-21.184-50.56z m0 0" fill="#666666" p-id="4332"></path><path d="M952.896 799.104l-28.992-72.448-28.8 72.448L824 828.48l71.104 29.568 28.8 72.448 28.992-72.448L1024 828.48l-71.104-29.376zM260.544 721.28c81.536-61.632 176.32 0 176.32 0-94.784-134.08-176.32 0-176.32 0z m281.792 0c81.536-61.632 176.384 0 176.384 0-94.848-134.08-176.384 0-176.384 0zM157.952 321.792l44.736-115.136 113.216-45.568-113.216-45.632L157.952 0.128l-44.736 115.328L0 161.088l113.216 45.568 44.736 115.136z m0 0" fill="#666666" p-id="4333"></path></svg>