<?xml version="1.0" standalone="no"?><!DOCTYPE svg PUBLIC "-//W3C//DTD SVG 1.1//EN" "http://www.w3.org/Graphics/SVG/1.1/DTD/svg11.dtd"><svg t="1721375931733" class="icon" viewBox="0 0 1024 1024" version="1.1" xmlns="http://www.w3.org/2000/svg" p-id="4475" xmlns:xlink="http://www.w3.org/1999/xlink" width="200" height="200"><path d="M871.57248 375.3664a136.90624 136.90624 0 0 1 137.2864 136.32c0 75.66592-61.73696 136.93952-137.2864 136.93952a138.80448 138.80448 0 0 1-97.12512-40.01536 136.43392 136.43392 0 0 1 97.12512-233.24416z m-719.34464 0a136.352 136.352 0 0 1 97.3184 40.01664 135.13856 135.13856 0 0 1 40.1792 96.3072c0 75.66592-61.952 136.93952-137.4976 136.93952A136.90112 136.90112 0 0 1 15.15904 511.69024c0-37.95712 15.47264-71.72096 40.1792-96.71168a136.65664 136.65664 0 0 1 96.896-39.61216z m55.24608 81.30176a77.00992 77.00992 0 1 0 23.2384 55.02208 77.568 77.568 0 0 0-23.2384-55.02208z m304.512-81.30176a136.9408 136.9408 0 0 1 137.3056 136.32c0 75.24224-61.952 136.93952-137.3056 136.93952a136.90112 136.90112 0 0 1-137.28-136.93568 135.14368 135.14368 0 0 1 40.1792-96.3072l0.42496-0.40448v-0.4224a138.76992 138.76992 0 0 1 96.68224-39.18976z m55.69024 81.30176a79.40864 79.40864 0 0 0-55.69024-22.95168 78.4128 78.4128 0 0 0-55.24736 22.72128l-0.40448 0.2304a78.47808 78.47808 0 0 0 55.65184 133.40032 78.3488 78.3488 0 0 0 55.69024-133.40032z m359.1424 0a78.28352 78.28352 0 0 0-133.53856 55.02208 77.824 77.824 0 0 0 23.02592 55.23456 77.53472 77.53472 0 0 0 110.51264 0 77.50656 77.50656 0 0 0 0-110.25664z" fill="#1296db" p-id="4476"></path></svg>