<?xml version="1.0" standalone="no"?><!DOCTYPE svg PUBLIC "-//W3C//DTD SVG 1.1//EN" "http://www.w3.org/Graphics/SVG/1.1/DTD/svg11.dtd"><svg t="1721649983432" class="icon" viewBox="0 0 1024 1024" version="1.1" xmlns="http://www.w3.org/2000/svg" p-id="4425" xmlns:xlink="http://www.w3.org/1999/xlink" width="200" height="200"><path d="M272.60928 122.88H296.96a170.20928 170.20928 0 0 1 170.27072 170.20928v194.56h-194.56A170.20928 170.20928 0 0 1 102.4 317.44v-24.35072A170.20928 170.20928 0 0 1 272.60928 122.88z m0 413.40928h194.56v194.56A170.20928 170.20928 0 0 1 296.98048 901.12h-24.3712A170.20928 170.20928 0 0 1 102.4 730.91072V706.56a170.20928 170.20928 0 0 1 170.20928-170.27072zM686.08 122.88h24.35072A170.20928 170.20928 0 0 1 880.64 293.08928V317.44a170.20928 170.20928 0 0 1-170.20928 170.27072h-194.56v-194.56A170.20928 170.20928 0 0 1 686.05952 122.88h0.02048z m-170.27072 413.40928h194.56A170.20928 170.20928 0 0 1 880.64 706.56v24.35072A170.20928 170.20928 0 0 1 710.43072 901.12H686.08a170.20928 170.20928 0 0 1-170.27072-170.20928v-194.62144z" fill="#000000" p-id="4426"></path></svg>