<?xml version="1.0" standalone="no"?><!DOCTYPE svg PUBLIC "-//W3C//DTD SVG 1.1//EN" "http://www.w3.org/Graphics/SVG/1.1/DTD/svg11.dtd"><svg t="1721376193111" class="icon" viewBox="0 0 1024 1024" version="1.1" xmlns="http://www.w3.org/2000/svg" p-id="6670" xmlns:xlink="http://www.w3.org/1999/xlink" width="200" height="200"><path d="M308.982702 906.092613c2.486634 0 4.976338-0.901533 6.945179-2.721994L725.191008 524.815887c4.148483-3.837398 4.40124-10.311857 0.563842-14.461363-3.838422-4.14746-10.311857-4.40124-14.461363-0.563842l-409.261081 378.556779c-4.149507 3.837398-4.40124 10.31288-0.563842 14.46034C303.484478 904.987443 306.231031 906.092613 308.982702 906.092613z" p-id="6671" fill="#cdcdcd"></path><path d="M718.669478 523.796674c2.739391 0 5.471618-1.092891 7.486508-3.254114 3.853771-4.134157 3.62762-10.608615-0.505513-14.46341L312.304354 120.654964c-4.133134-3.852748-10.606569-3.62762-14.462387 0.505513-3.853771 4.134157-3.62762 10.608615 0.505513 14.46341L711.692576 521.048073C713.664487 522.885931 716.169541 523.796674 718.669478 523.796674z" p-id="6672" fill="#cdcdcd"></path></svg>