<?xml version="1.0" encoding="UTF-8"?>
<svg width="30px" height="30px" viewBox="0 0 30 30" version="1.1" xmlns="http://www.w3.org/2000/svg" xmlns:xlink="http://www.w3.org/1999/xlink">
    <title>switch_camera</title>
    <g id="switch_camera" stroke="none" stroke-width="1" fill="none" fill-rule="evenodd">
        <path d="M6.50060567,14.3348775 L6.49973735,16.0976208 C5.85896536,16.5766837 5.5,17.1000124 5.5,17.625 C5.5,18.999785 7.96163709,20.3631941 11.499297,20.9500937 L11.5,19.6952945 C11.5,19.5627461 11.6074517,19.4552945 11.74,19.4552945 C11.7804674,19.4552945 11.8202778,19.465527 11.8557296,19.4850406 L16.0469585,21.7920105 C16.1630785,21.8559262 16.2053984,22.0018739 16.1414827,22.1179939 C16.1167725,22.1628867 16.0783418,22.1986918 16.0318154,22.2201688 L11.8405864,24.1548735 C11.7202411,24.2104258 11.5776479,24.1579007 11.5220955,24.0375554 C11.5075387,24.0060204 11.5,23.9717016 11.5,23.936969 L11.498907,22.474871 C7.14691265,21.8101281 4,19.9949926 4,17.625 C4,16.3303635 4.93904501,15.2012974 6.50060567,14.3348775 Z M24.0003815,14.3354253 C25.5613508,15.2017733 26.5,16.3306363 26.5,17.625 C26.5,19.8884012 23.6698656,21.643491 19.5188838,22.3856416 C19.1111359,22.4585426 18.721493,22.1870955 18.6485921,21.7793476 C18.5756912,21.3715997 18.8471383,20.9819569 19.2548862,20.909056 C22.7609435,20.2822108 25,18.8936743 25,17.625 C25,17.1002844 24.6414065,16.577226 24.0012584,16.0983654 L24.0003815,14.3354253 Z M17.3146174,6 C17.8996381,6 18.4312797,6.34012309 18.676492,6.871273 L18.9667519,7.5 L21,7.5 C21.8284271,7.5 22.5,8.17157288 22.5,9 L22.5,16.5 C22.5,17.3284271 21.8284271,18 21,18 L9.5,18 C8.67157288,18 8,17.3284271 8,16.5 L8,9 C8,8.17157288 8.67157288,7.5 9.5,7.5 L11.5570632,7.5 L11.8802501,6.84018149 C12.1321172,6.32596955 12.654753,6 13.2273357,6 L17.3146174,6 Z M17.3146174,7.5 L13.2273357,7.5 L12.4926179,9 L9.5,9 L9.5,16.5 L21,16.5 L21,9 L18.0071118,9 L17.3146174,7.5 Z M15.375,9.75 C16.8247475,9.75 18,10.9252525 18,12.375 C18,13.8247475 16.8247475,15 15.375,15 C13.9252525,15 12.75,13.8247475 12.75,12.375 C12.75,10.9252525 13.9252525,9.75 15.375,9.75 Z M15.375,10.75 C14.4775373,10.75 13.75,11.4775373 13.75,12.375 C13.75,13.2724627 14.4775373,14 15.375,14 C16.2724627,14 17,13.2724627 17,12.375 C17,11.4775373 16.2724627,10.75 15.375,10.75 Z" id="形状" fill="#FFFFFF"></path>
    </g>
</svg>