<?xml version="1.0" standalone="no"?><!DOCTYPE svg PUBLIC "-//W3C//DTD SVG 1.1//EN" "http://www.w3.org/Graphics/SVG/1.1/DTD/svg11.dtd"><svg t="1731663501910" class="icon" viewBox="0 0 1097 1024" version="1.1" xmlns="http://www.w3.org/2000/svg" p-id="5127" xmlns:xlink="http://www.w3.org/1999/xlink" width="214.2578125" height="200"><path d="M489.910857 960H195.437714a53.394286 53.394286 0 0 1-34.816-11.702857 44.690286 44.690286 0 0 1-16.969143-27.721143 103.131429 103.131429 0 0 1 0-33.133714 41.837714 41.837714 0 0 1 16.969143-27.794286 60.928 60.928 0 0 1 34.816-11.702857h294.473143a56.393143 56.393143 0 0 0 40.228572-16.091429 50.541714 50.541714 0 0 0 16.091428-40.301714v-167.497143c0-42.422857 14.628571-79.798857 43.739429-112.054857a161.865143 161.865143 0 0 1-43.739429-111.981714V231.570286a55.661714 55.661714 0 0 0-16.091428-39.497143 50.249143 50.249143 0 0 0-40.228572-16.091429H195.437714a49.883429 49.883429 0 0 1-33.938285-11.629714 56.100571 56.100571 0 0 1-17.846858-27.794286 62.610286 62.610286 0 0 1 0-33.133714 51.346286 51.346286 0 0 1 17.846858-27.794286 56.612571 56.612571 0 0 1 33.938285-11.629714h295.424c45.860571 0 85.138286 16.457143 117.906286 49.298286 32.768 32.841143 49.152 72.265143 49.152 118.272v168.448c0 15.506286 5.632 28.672 16.969143 39.424 11.264 10.752 24.429714 16.091429 39.277714 16.091428h159.597714v-55.588571c0-12.434286 3.291429-23.259429 9.874286-32.182857a57.782857 57.782857 0 0 1 25.014857-19.748572 50.980571 50.980571 0 0 1 31.232-2.706285 60.708571 60.708571 0 0 1 28.598857 15.286857l112.64 111.981714c10.678857 11.337143 16.018286 24.502857 16.018286 39.424a55.661714 55.661714 0 0 1-16.091428 39.424L968.484571 663.405714a45.933714 45.933714 0 0 1-29.476571 15.213715 82.139429 82.139429 0 0 1-32.182857-2.633143 40.448 40.448 0 0 1-24.137143-20.626286 73.801143 73.801143 0 0 1-9.801143-31.378286V567.588571H713.289143a51.931429 51.931429 0 0 0-39.350857 17.042286 55.661714 55.661714 0 0 0-16.091429 39.497143v167.497143c0 46.592-16.310857 86.308571-49.078857 119.222857a161.645714 161.645714 0 0 1-118.857143 49.225143z" fill="#1EB7B5" p-id="5128"></path><path d="M141.385143 512c0-35.328 28.525714-64 63.707428-64H460.068571c35.108571 0 63.634286 28.672 63.634286 64s-28.525714 64-63.634286 64H205.092571A63.853714 63.853714 0 0 1 141.458286 512zM341.577143 128c0 70.656-61.074286 128-136.484572 128-75.337143 0-136.557714-57.344-136.557714-128S129.682286 0 205.092571 0c75.410286 0 136.557714 57.344 136.557715 128z" fill="#1EB7B5" p-id="5129"></path><path d="M346.185143 512c0 70.656-61.074286 128-136.484572 128C134.290286 640 73.142857 582.656 73.142857 512s61.147429-128 136.557714-128c75.337143 0 136.484571 57.344 136.484572 128zM346.185143 896c0 70.656-61.074286 128-136.484572 128C134.290286 1024 73.142857 966.656 73.142857 896s61.147429-128 136.557714-128c75.337143 0 136.484571 57.344 136.484572 128z" fill="#1EB7B5" p-id="5130"></path></svg>