<?xml version="1.0" standalone="no"?><!DOCTYPE svg PUBLIC "-//W3C//DTD SVG 1.1//EN" "http://www.w3.org/Graphics/SVG/1.1/DTD/svg11.dtd"><svg t="1721377977439" class="icon" viewBox="0 0 1024 1024" version="1.1" xmlns="http://www.w3.org/2000/svg" p-id="7730" xmlns:xlink="http://www.w3.org/1999/xlink" width="200" height="200"><path d="M699.822211 753.355779l266.551694 144.60264v-289.246619l-266.551694 144.643979z" fill="#FFFFFF" p-id="7731"></path><path d="M913.088369 631.57208h62.007994v297.390336h-62.007994z" fill="#FFFFFF" p-id="7732"></path><path d="M907.548989 642.40281v-62.007993h109.547454v62.007993zM907.548989 928.962416v-62.007993h109.547454v62.007993z" fill="#000333" p-id="7733"></path><path d="M516.468709 877.834758l-31.003996-53.698922 422.121481-243.716216 31.003996 53.698922z" fill="#000333" p-id="7734"></path><path d="M938.598458 875.275895l-31.003997 53.698922-422.12148-243.707948 31.003996-53.698923zM955.129789 631.57208h62.007993v297.390336h-62.007993z" fill="#000333" p-id="7735"></path><path d="M70.44108 536.534496h703.790723V1023.958661H70.44108z" fill="#FFFFFF" p-id="7736"></path><path d="M70.44108 1023.958661v-62.007993h703.790723v62.007993zM70.44108 598.542489v-62.007993h703.790723v62.007993z" fill="#000333" p-id="7737"></path><path d="M712.22381 536.534496h62.007993V1023.958661h-62.007993zM70.44108 536.534496h62.007994V1023.958661h-62.007994z" fill="#000333" p-id="7738"></path><path d="M632.150822 288.957248m-288.957249 0a288.957248 288.957248 0 1 0 577.914497 0 288.957248 288.957248 0 1 0-577.914497 0Z" fill="#000333" p-id="7739"></path><path d="M632.150822 288.957248m-236.291793 0a236.291793 236.291793 0 1 0 472.583585 0 236.291793 236.291793 0 1 0-472.583585 0Z" fill="#7ECEF4" p-id="7740"></path><path d="M196.234629 409.170078m-189.372411 0a189.372411 189.372411 0 1 0 378.744822 0 189.372411 189.372411 0 1 0-378.744822 0Z" fill="#000333" p-id="7741"></path><path d="M196.234629 409.170078m-131.250252 0a131.250252 131.250252 0 1 0 262.500505 0 131.250252 131.250252 0 1 0-262.500505 0Z" fill="#7ECEF4" p-id="7742"></path></svg>