<?xml version="1.0" standalone="no"?><!DOCTYPE svg PUBLIC "-//W3C//DTD SVG 1.1//EN" "http://www.w3.org/Graphics/SVG/1.1/DTD/svg11.dtd"><svg t="1724757409164" class="icon" viewBox="0 0 1024 1024" version="1.1" xmlns="http://www.w3.org/2000/svg" p-id="1512" xmlns:xlink="http://www.w3.org/1999/xlink" width="200" height="200"><path d="M420 568a8 8 0 0 1 8-8h300a8 8 0 0 1 8 8v56a8 8 0 0 1-8 8h-300a8 8 0 0 1-8-8v-56zM292 560a8 8 0 0 0-8 8v56a8 8 0 0 0 8 8h56a8 8 0 0 0 8-8v-56a8 8 0 0 0-8-8H292zM420 704a8 8 0 0 1 8-8h300a8 8 0 0 1 8 8v56a8 8 0 0 1-8 8h-300a8 8 0 0 1-8-8v-56zM292 696a8 8 0 0 0-8 8v56a8 8 0 0 0 8 8h56a8 8 0 0 0 8-8v-56a8 8 0 0 0-8-8H292z" p-id="1513"></path><path d="M148.936 375.276L419.36 116.44a15.996 15.996 0 0 1 11.064-4.44H864a16 16 0 0 1 16 16v768a16 16 0 0 1-16 16H160a16 16 0 0 1-16-16V386.832a16 16 0 0 1 4.936-11.56zM488 176h328v672H208V440h264a16 16 0 0 0 16-16V176z m-64 24.592L240.736 376H424V200.592z" p-id="1514"></path></svg>