<svg width="72" height="72" viewBox="0 0 72 72" fill="none" xmlns="http://www.w3.org/2000/svg">
<circle cx="36" cy="36" r="36" fill="#1BBF52"/>
<path fill-rule="evenodd" clip-rule="evenodd" d="M29.922 35.5138C29.922 35.5138 28.1805 33.2363 29.2367 31.5065C31.3485 27.9134 32.1478 28.0508 31.2075 26.3111C27.7167 20.1546 25.4554 20.4103 24.9236 20.5412C22.6643 21.1973 20.9537 25.1928 22.0396 29.4691C23.1261 33.8787 25.5436 38.295 29.0212 41.7822C32.632 45.2701 36.9029 47.6935 41.3004 48.7829C45.6986 50.0058 49.6823 48.1569 50.3373 46.0247C50.4677 45.4915 50.7227 43.2239 44.5831 39.7235C42.8482 38.7807 42.8515 39.448 39.4022 41.6999C37.6772 42.7591 35.406 41.0129 35.406 41.0129C35.406 41.0129 33.5367 39.8025 32.3329 38.5954C30.9953 37.2541 29.922 35.5138 29.922 35.5138Z" fill="#FFFFFF"/>
</svg>


