<svg width="72" height="72" viewBox="0 0 72 72" fill="none" xmlns="http://www.w3.org/2000/svg">
<circle cx="36" cy="36" r="36" fill="#1BBF52"/>
<path fill-rule="evenodd" clip-rule="evenodd" d="M21.1476 27.5H36.9553C36.9553 27.5 39.6029 27.5 39.6029 30.0843V41.9917C39.6029 44.5 36.9553 44.5 36.9553 44.5H21.1476C21.1476 44.5 18.5 44.5 18.5 41.9917V30.0083C18.5 27.5 21.1476 27.5 21.1476 27.5ZM46.4876 28.4994C46.6433 28.3473 46.8769 28.3473 47.1105 28.4234C47.3441 28.4994 47.4999 28.7274 47.4999 28.9554V43.1691C47.4999 43.3971 47.422 43.6251 47.1884 43.7012C47.0327 43.7772 46.9548 43.7772 46.8769 43.7772C46.7212 43.7772 46.5654 43.7012 46.4876 43.6251L41.2702 39.6727C41.1145 39.5967 41.0366 39.3686 41.0366 39.2166V32.9079C41.0366 32.7559 41.1145 32.6038 41.2702 32.4518L46.4876 28.4994Z" fill="white"/>
</svg>
