<svg width="64" height="64" viewBox="0 0 64 64" fill="none" xmlns="http://www.w3.org/2000/svg">

<circle opacity="0.5" cx="32" cy="32" r="32" fill="black"/>

<mask id="mask0_18150_4854" style="mask-type:alpha" maskUnits="userSpaceOnUse" x="14" y="14" width="36" height="36">

<rect x="14" y="14" width="36" height="36" fill="#D9D9D9"/>

</mask>

<g mask="url(#mask0_18150_4854)">

<path d="M41 19C41.214 19 41.424 19.0165 41.6289 19.0488C41.6371 19.0501 41.6451 19.0524 41.6533 19.0537C41.71 19.063 41.7664 19.0733 41.8223 19.085C41.8527 19.0913 41.8829 19.0984 41.9131 19.1055C41.9527 19.1147 41.9921 19.1243 42.0312 19.1348C42.0492 19.1396 42.0671 19.1444 42.085 19.1494C42.1392 19.1647 42.1928 19.1818 42.2461 19.1992C42.2526 19.2013 42.2592 19.2029 42.2656 19.2051C42.3219 19.2239 42.3774 19.2444 42.4326 19.2656C42.446 19.2708 42.4593 19.276 42.4727 19.2812C42.5007 19.2924 42.5289 19.3027 42.5566 19.3145L42.6445 19.3535C42.6497 19.3559 42.655 19.358 42.6602 19.3604C44.0405 19.991 45 21.3832 45 23V41C45 42.4346 44.2439 43.6914 43.1094 44.3975C43.1009 44.4027 43.0925 44.4079 43.084 44.4131C43.0034 44.4624 42.9211 44.5091 42.8369 44.5527C42.8294 44.5566 42.822 44.5606 42.8145 44.5645C42.7315 44.6068 42.6468 44.646 42.5605 44.6826C42.5549 44.685 42.5496 44.6881 42.5439 44.6904C42.4571 44.7268 42.3682 44.7587 42.2783 44.7891C42.2637 44.794 42.2491 44.7989 42.2344 44.8037C42.0506 44.8633 41.8614 44.9107 41.667 44.9434C41.6553 44.9453 41.6436 44.9474 41.6318 44.9492C41.5384 44.964 41.4441 44.9761 41.3486 44.9844C41.3304 44.9859 41.3122 44.987 41.2939 44.9883C41.2647 44.9904 41.2355 44.9936 41.2061 44.9951L41 45H23L22.7939 44.9951C20.8375 44.8959 19.2531 43.3905 19.0283 41.4697C19.0262 41.4522 19.0233 41.4346 19.0215 41.417V41.416C19.0143 41.3465 19.0085 41.2766 19.0049 41.2061L19 41V23C19 20.7909 20.7909 19 23 19H41ZM24.0596 43.5H26.9395L28.6895 41.75H26.5C26.2758 41.75 26.0494 41.745 25.8242 41.7344L24.0596 43.5ZM30.8105 41.75L29.0605 43.5H31.9395L33.6895 41.75H30.8105ZM38.7549 41.6826C38.3533 41.7281 37.9308 41.75 37.5 41.75H35.8105L34.0605 43.5H36.9395L38.7549 41.6826ZM39.0605 43.5H41C42.3807 43.5 43.5 42.3807 43.5 41V39.0605L39.0605 43.5ZM20.667 41.8926C20.9201 42.5538 21.4445 43.0783 22.1055 43.332L23.9893 41.4473C23.9244 41.4269 23.8601 41.4077 23.7979 41.3848C23.4062 41.2401 23.0194 41.0253 22.7266 40.6963C22.5851 40.5373 22.4735 40.3591 22.3936 40.165L20.667 41.8926ZM32 23.75C30.1966 23.75 28.5322 25.3689 28.5322 28.0078C28.5322 29.4558 29.118 30.9559 29.9609 32.042C30.1409 32.2738 30.7084 32.7809 30.7734 33.5957C30.8226 34.2116 30.6092 34.683 30.332 35.0039C30.0743 35.3022 29.773 35.4599 29.6025 35.5215L29.5996 35.5225C28.3499 35.9678 26.8218 36.4553 25.5791 37.0293C24.9591 37.3157 24.4627 37.6007 24.1328 37.8779C23.7876 38.1681 23.75 38.3413 23.75 38.3965V39.4229C23.75 39.5532 23.7869 39.631 23.8477 39.6992C23.9225 39.7831 24.0655 39.8845 24.3174 39.9775C24.8328 40.1678 25.5985 40.25 26.5 40.25H37.5C38.4634 40.25 39.2229 40.1379 39.7139 39.9355C40.1868 39.7406 40.25 39.547 40.25 39.3906V38.3965C40.25 38.3111 40.1996 38.1276 39.875 37.8428C39.5589 37.5654 39.0807 37.2807 38.4746 36.9971C37.2641 36.4307 35.7374 35.9525 34.4453 35.5322V35.5312C34.2909 35.4812 33.9869 35.342 33.7393 35.0156C33.4738 34.6657 33.3328 34.1808 33.4082 33.5645C33.4641 33.1085 33.6366 32.7916 33.8564 32.5322C33.9514 32.4202 34.0551 32.3179 34.1309 32.2432C34.2134 32.1617 34.2822 32.0933 34.3496 32.0146C35.0875 31.1527 35.6357 29.6427 35.6357 28.0078C35.6357 25.4088 33.8388 23.75 32 23.75ZM20.5 37.0596V39.9375L22.2656 38.1709C22.3476 37.5589 22.7521 37.079 23.168 36.7295C23.5633 36.3972 24.0646 36.1029 24.5986 35.8379L28.2471 32.1895C27.8795 31.582 27.5754 30.9059 27.3633 30.1953L20.5 37.0596ZM40.8535 36.7051C40.8572 36.7083 40.8606 36.7117 40.8643 36.7148C41.3276 37.1214 41.75 37.6817 41.75 38.3965V38.6885L43.5 36.9385V34.0596L40.8535 36.7051ZM37.5586 35C38.0959 35.1986 38.6249 35.4115 39.1104 35.6387C39.2664 35.7117 39.4204 35.7877 39.5713 35.8662L43.5 31.9385V29.0596L37.5586 35ZM20.5 32.0605V34.9385L27.0439 28.3936C27.0369 28.2651 27.0322 28.1365 27.0322 28.0078C27.0322 26.7267 27.3637 25.563 27.9375 24.6221L20.5 32.0605ZM28.0996 34.458C28.4526 34.3356 28.7878 34.2196 29.0918 34.1113C29.0693 34.1195 29.0813 34.1173 29.1113 34.0977C29.1387 34.0797 29.1695 34.0544 29.1963 34.0234C29.222 33.9937 29.2442 33.959 29.2588 33.917C29.2729 33.8764 29.2861 33.8124 29.2783 33.7148C29.2703 33.6148 29.2424 33.5486 29.1787 33.457C29.1687 33.4426 29.1561 33.4294 29.1445 33.4141L28.0996 34.458ZM36.6426 30.915C36.3604 31.7154 35.9685 32.4305 35.4893 32.9902C35.3771 33.1213 35.2682 33.228 35.1846 33.3105C35.094 33.4 35.0429 33.4514 35 33.502C34.9442 33.5678 34.9123 33.6176 34.8965 33.7461C34.8785 33.8928 34.8903 33.984 34.9023 34.0332C34.9139 34.0804 34.9292 34.1013 34.9346 34.1084C34.9378 34.1126 34.9412 34.1152 34.9434 34.1172C35.2686 34.2229 35.619 34.3356 35.9824 34.4551L43.5 26.9385V24.0586L36.6426 30.915ZM34.9092 34.1064C34.9107 34.107 34.9125 34.1069 34.9141 34.1074C34.9114 34.1065 34.9083 34.1054 34.9053 34.1045L34.9092 34.1064ZM20.5 27.0605V29.9395L29.9395 20.5H27.0605L20.5 27.0605ZM36.7559 25.8027C36.9994 26.4749 37.1357 27.217 37.1357 28.0078C37.1357 28.1079 37.1323 28.2078 37.1289 28.3076L43.332 22.1064C43.0784 21.445 42.5543 20.9192 41.8926 20.666L36.7559 25.8027ZM23 20.5C21.6193 20.5 20.5 21.6193 20.5 23V24.9395L24.9395 20.5H23ZM34.5566 23.002C35.1228 23.3613 35.6228 23.8379 36.0283 24.4082L39.9385 20.5H37.0605L34.5566 23.002ZM29.6807 22.8789C30.366 22.4759 31.1518 22.25 32 22.25C32.3643 22.25 32.7206 22.2929 33.0654 22.373L34.9395 20.5H32.0605L29.6807 22.8789Z" fill="white"/>

</g>

</svg>
