<svg width="64" height="64" viewBox="0 0 64 64" fill="none" xmlns="http://www.w3.org/2000/svg">
<circle opacity="0.5" cx="32" cy="32" r="32" fill="black"/>
<rect opacity="0.01" x="14" y="14" width="36" height="36" fill="#D8D8D8"/>
<rect opacity="0.01" x="17" y="17" width="29" height="29" fill="#D8D8D8"/>
<path d="M38.1211 24.499C38.4059 24.8714 38.6025 25.3818 38.6025 26.084V37.9922C38.6022 40.5 35.9551 40.5 35.9551 40.5H22.1211L38.1211 24.499ZM18.4258 39.9521C17.9206 39.5905 17.5001 38.9906 17.5 37.9922V26.0078C17.5003 23.5106 20.1254 23.5 20.1475 23.5H34.8789L18.4258 39.9521ZM45.4873 24.499C45.643 24.347 45.8768 24.3478 46.1104 24.4238C46.3438 24.4998 46.4998 24.7272 46.5 24.9551V39.1689C46.5 39.397 46.422 39.6251 46.1885 39.7012C46.0328 39.7772 45.9548 39.7773 45.877 39.7773C45.7212 39.7773 45.5652 39.701 45.4873 39.625L40.2705 35.6729C40.1148 35.5969 40.0372 35.3688 40.0371 35.2168V28.9082C40.0371 28.7562 40.1148 28.6042 40.2705 28.4521L45.4873 24.499Z" fill="white"/>
<path d="M43.6653 20.3347C43.219 19.8884 42.4953 19.8884 42.049 20.3347L20.3347 42.049C19.8884 42.4953 19.8884 43.219 20.3347 43.6653C20.781 44.1116 21.5047 44.1116 21.951 43.6653L43.6653 21.951C44.1116 21.5047 44.1116 20.781 43.6653 20.3347Z" fill="white"/>
</svg>


