<svg width="16" height="16" viewBox="0 0 16 16" fill="none" xmlns="http://www.w3.org/2000/svg">
<path d="M8.50684 11.9886C9.19303 11.988 9.74879 12.5432 9.74805 13.2285C9.74728 13.9139 9.19015 14.47 8.50391 14.4707C7.81769 14.4714 7.26196 13.9165 7.2627 13.2311C7.26344 12.5457 7.82058 11.9893 8.50684 11.9886Z" fill="white"/>
<path d="M11.9063 3.36947C12.5052 4.11337 12.8631 5.05923 12.862 6.0892L12.8597 8.26465C12.8593 8.6426 13.0729 8.98792 13.4111 9.15658L13.5706 9.23633C13.8956 9.39838 14.1006 9.72999 14.1003 10.0931C14.0997 10.6226 13.6695 11.0525 13.1393 11.0531L4.21354 11.0622L11.9063 3.36947Z" fill="white"/>
<path d="M8.51921 0.509117C8.86227 0.508825 9.14002 0.78625 9.13965 1.12891L9.139 1.7933C9.79059 1.8857 10.3953 2.12269 10.9199 2.47038L2.9707 10.4196C2.9365 10.321 2.91687 10.2154 2.91699 10.1051C2.9174 9.74203 3.12322 9.40983 3.44857 9.24707L3.6084 9.16732C3.94704 8.99794 4.16138 8.65204 4.16178 8.27409L4.16406 6.09831C4.16647 3.91009 5.78857 2.09795 7.89649 1.7946L7.89714 1.13021C7.89751 0.787505 8.17607 0.509486 8.51921 0.509117Z" fill="white"/>
<path d="M14.8047 1.19526C14.5444 0.934913 14.1223 0.934913 13.8619 1.19526L1.19526 13.8619C0.934912 14.1223 0.934912 14.5444 1.19526 14.8047C1.45561 15.0651 1.87772 15.0651 2.13807 14.8047L14.8047 2.13807C15.0651 1.87772 15.0651 1.45561 14.8047 1.19526Z" fill="white"/>
</svg>
