<svg width="72" height="72" viewBox="0 0 72 72" fill="none" xmlns="http://www.w3.org/2000/svg">
<circle opacity="0.5" cx="36" cy="36" r="36" fill="black"/>
<path d="M47.1656 23.0388C47.6615 22.5429 48.4655 22.5429 48.9614 23.0388C49.4572 23.5347 49.4573 24.3387 48.9614 24.8346L41.9757 31.8203V36.3797C41.9755 39.6694 39.3117 42.3323 36.022 42.3324C34.7276 42.3324 33.5442 41.9174 32.5779 41.217L31.0111 42.7838C32.3858 43.8746 34.1254 44.5263 36.022 44.5264C40.4868 44.5263 44.0905 40.9227 44.0905 36.4578V33.246C44.0906 32.6194 44.6391 32.0709 45.2657 32.0709C45.8922 32.071 46.4407 32.5412 46.4408 33.246V36.4578C46.4408 41.7844 42.3669 46.249 37.1971 46.7975V50.2599C37.197 50.9087 36.6707 51.4349 36.022 51.4351C35.3733 51.4348 34.848 50.9086 34.8479 50.2599V46.7975C32.7749 46.5776 30.8805 45.7252 29.352 44.4429L24.8349 48.9611C24.339 49.457 23.535 49.4569 23.0391 48.9611C22.5432 48.4652 22.5432 47.6612 23.0391 47.1653L47.1656 23.0388Z" fill="white"/>
<path d="M26.7793 31.7584C27.4057 31.7586 27.9542 32.3061 27.9545 32.9325V36.4578C27.9545 36.8819 27.9862 37.2984 28.0489 37.7046L26.1088 39.6447C25.7825 38.638 25.6042 37.5669 25.6042 36.4578V32.9325C25.6044 32.306 26.1528 31.7584 26.7793 31.7584Z" fill="white"/>
<path d="M36.022 20.5562C38.504 20.5563 40.629 22.0728 41.5233 24.2302L30.0693 35.6853V26.5099C30.0693 23.22 32.732 20.5562 36.022 20.5562Z" fill="white"/>
</svg>


