<svg width="72" height="72" viewBox="0 0 72 72" fill="none" xmlns="http://www.w3.org/2000/svg">
<circle opacity="0.5" cx="36" cy="36" r="36" fill="black"/>
<path d="M47.1653 24.7029C47.6613 24.207 48.4652 24.207 48.9611 24.7029C49.457 25.1988 49.457 26.0028 48.9611 26.4987L47.7133 27.7455C49.4198 29.8467 50.4444 32.524 50.4444 35.4419C50.4444 39.0079 48.9156 42.2159 46.4796 44.4501L44.9789 42.8128C46.972 40.9848 48.2221 38.3594 48.2222 35.4419C48.2222 33.1381 47.4404 31.0183 46.1313 29.3275L44.5449 30.9139C45.4601 32.1893 46 33.7523 46 35.4419C45.9999 37.711 45.0273 39.7525 43.4772 41.1743L41.9755 39.5369C43.0829 38.5214 43.7777 37.0628 43.7778 35.4419C43.7777 34.3677 43.4713 33.3655 42.9433 32.5154L38.2222 37.2377V47.4373C38.2218 48.3914 37.0981 48.9019 36.3798 48.2739L31.4763 43.9825L24.8346 50.6253C24.3387 51.1212 23.5347 51.1212 23.0388 50.6253C22.5429 50.1293 22.5429 49.3254 23.0388 48.8295L47.1653 24.7029Z" fill="white"/>
<path d="M36.3798 23.721C37.0982 23.0928 38.2221 23.6031 38.2222 24.5575V29.1962L25.3099 42.1085H23.7778C22.5507 42.1085 21.5558 41.1134 21.5555 39.8863V32.1085C21.5557 30.8814 22.5506 29.8863 23.7778 29.8863H29.3333L36.3798 23.721Z" fill="white"/>
</svg>


