<svg width="64" height="64" viewBox="0 0 64 64" fill="none" xmlns="http://www.w3.org/2000/svg">
<circle cx="32" cy="32" r="32" fill="white"/>
<rect opacity="0.01" x="14" y="14" width="36" height="36" fill="#D8D8D8"/>
<rect opacity="0.01" x="17" y="17" width="29" height="29" fill="#D8D8D8"/>
<path fill-rule="evenodd" clip-rule="evenodd" d="M20.1476 23.5H35.9553C35.9553 23.5 38.6029 23.5 38.6029 26.0843V37.9917C38.6029 40.5 35.9553 40.5 35.9553 40.5H20.1476C20.1476 40.5 17.5 40.5 17.5 37.9917V26.0083C17.5 23.5 20.1476 23.5 20.1476 23.5ZM45.4876 24.4994C45.6433 24.3473 45.8769 24.3473 46.1105 24.4234C46.3441 24.4994 46.4999 24.7274 46.4999 24.9554V39.1691C46.4999 39.3971 46.422 39.6251 46.1884 39.7012C46.0327 39.7772 45.9548 39.7772 45.8769 39.7772C45.7212 39.7772 45.5654 39.7012 45.4876 39.6251L40.2702 35.6727C40.1145 35.5967 40.0366 35.3686 40.0366 35.2166V28.9079C40.0366 28.7559 40.1145 28.6038 40.2702 28.4518L45.4876 24.4994Z" fill="black"/>
</svg>


