<svg width="72" height="72" viewBox="0 0 72 72" fill="none" xmlns="http://www.w3.org/2000/svg">
<circle cx="36" cy="36" r="36" fill="#E5362C"/>
<path fill-rule="evenodd" clip-rule="evenodd" d="M32.1441 33.2915C32.1441 33.2915 29.3022 33.6705 28.8259 35.6406C27.7785 39.6746 28.4408 40.1425 26.5458 40.7078C19.7241 42.5928 18.3059 40.8129 18.0225 40.3444C16.8888 38.2828 18.5045 34.248 22.2961 31.9921C26.1825 29.6423 31.0146 28.2289 35.9396 28.2222C40.959 28.3091 45.6927 29.6155 49.5725 31.9547C53.5472 34.1999 55.0568 38.3242 54.0122 40.295C53.7274 40.7643 52.3043 42.5481 45.4878 40.6818C43.5944 40.1217 44.0686 39.6522 43.2218 35.6208C42.751 33.6521 39.9103 33.2808 39.9103 33.2808C39.9103 33.2808 37.7326 32.8149 36.0278 32.8173C34.1336 32.8199 32.1441 33.2915 32.1441 33.2915Z" fill="#FFFFFF"/>
</svg>
