<svg width="72" height="72" viewBox="0 0 72 72" fill="none" xmlns="http://www.w3.org/2000/svg">
<circle cx="36" cy="36" r="36" fill="white"/>
<path d="M26.7791 31.7584C27.4055 31.7585 27.954 32.306 27.9542 32.9325V36.4578C27.9542 40.9226 31.557 44.5262 36.0217 44.5264C40.4867 44.5264 44.0903 40.9228 44.0903 36.4578V33.246C44.0904 32.6194 44.6388 32.0709 45.2654 32.0709C45.892 32.0709 46.4405 32.5411 46.4405 33.246V36.4578C46.4405 41.7845 42.3668 46.2491 37.1968 46.7975V50.2599C37.1967 50.9088 36.6706 51.4351 36.0217 51.4351C35.3731 51.4348 34.8478 50.9086 34.8477 50.2599V46.7975C29.6777 46.2491 25.604 41.7845 25.604 36.4578V32.9325C25.6042 32.306 26.1526 31.7584 26.7791 31.7584Z" fill="black"/>
<path d="M36.0217 20.5562C39.3117 20.5562 41.9755 23.22 41.9755 26.5099V36.3797C41.9753 39.6695 39.3115 42.3324 36.0217 42.3324C32.7319 42.3324 30.1475 39.6695 30.069 36.3797V26.5099C30.069 23.22 32.7318 20.5562 36.0217 20.5562Z" fill="black"/>
</svg>


