<svg width="18" height="18" viewBox="0 0 18 18" fill="none" xmlns="http://www.w3.org/2000/svg">
  <!-- 声波图标，来自 Figma node-id=19276-1259，居中到 18x18 -->
  <path d="M11.3555 2.168C13.2796 3.8186 14.5 6.2661 14.5 9C14.5 11.7337 13.2793 14.1805 11.3555 15.8311L10.0537 14.3135C11.5503 13.0297 12.5 11.1265 12.5 9C12.5 6.8734 11.5506 4.9694 10.0537 3.6856L11.3555 2.168ZM9.0781 4.8252C10.254 5.8339 11 7.3293 11 9C11 10.6705 10.2537 12.1652 9.0781 13.1739L7.7773 11.6563C8.5254 11.0144 9 10.063 9 9C9 7.9368 8.5256 6.9847 7.7773 6.3428L9.0781 4.8252ZM6.7998 7.4824C7.2277 7.8493 7.5 8.3923 7.5 9C7.5 9.6076 7.2274 10.1498 6.7998 10.5166L5.5 9L6.7998 7.4824Z" fill="white"/>
</svg>
