<svg width="72" height="72" viewBox="0 0 72 72" fill="none" xmlns="http://www.w3.org/2000/svg">
<circle cx="36" cy="36" r="36" fill="white"/>
<path d="M46.4796 26.4325C48.916 28.6668 50.4444 31.8754 50.4444 35.4418C50.4444 39.0079 48.9157 42.2158 46.4796 44.4501L44.9789 42.8127C46.9721 40.9846 48.2222 38.3595 48.2222 35.4418C48.2222 32.5239 46.9724 29.8979 44.9789 28.0699L46.4796 26.4325Z" fill="black"/>
<path d="M43.4772 29.7083C45.0277 31.1301 46 33.1723 46 35.4418C46 37.7111 45.0273 39.7524 43.4772 41.1742L41.9755 39.5369C43.0829 38.5213 43.7778 37.0629 43.7778 35.4418C43.7778 33.8205 43.0833 32.3613 41.9755 31.3457L43.4772 29.7083Z" fill="black"/>
<path d="M36.3798 23.7209C37.0982 23.0926 38.2222 23.603 38.2222 24.5575V47.4373C38.222 48.3915 37.0981 48.902 36.3798 48.2738L29.3333 42.1085H23.7778C22.5506 42.1085 21.5557 41.1134 21.5555 39.8863V32.1085C21.5556 30.8813 22.5505 29.8863 23.7778 29.8863H29.3333L36.3798 23.7209Z" fill="black"/>
</svg>


